<svg xmlns="http://www.w3.org/2000/svg" xmlns:xlink="http://www.w3.org/1999/xlink" width="500" zoomAndPan="magnify" viewBox="0 0 375 374.999991" height="500" preserveAspectRatio="xMidYMid meet" version="1.0"><defs><g/><linearGradient x1="0" gradientTransform="matrix(0.75, 0, 0, 0.75, 0.0000045, 0)" y1="250" x2="499.999979" gradientUnits="userSpaceOnUse" y2="250" id="12ad1b983d"><stop stop-opacity="1" stop-color="rgb(31.799316%, 43.899536%, 100%)" offset="0"/><stop stop-opacity="1" stop-color="rgb(32.064819%, 43.884277%, 99.908447%)" offset="0.00390625"/><stop stop-opacity="1" stop-color="rgb(32.331848%, 43.869019%, 99.81842%)" offset="0.0078125"/><stop stop-opacity="1" stop-color="rgb(32.597351%, 43.85376%, 99.728394%)" offset="0.0117187"/><stop stop-opacity="1" stop-color="rgb(32.86438%, 43.838501%, 99.638367%)" offset="0.015625"/><stop stop-opacity="1" stop-color="rgb(33.129883%, 43.823242%, 99.54834%)" offset="0.0195312"/><stop stop-opacity="1" stop-color="rgb(33.396912%, 43.807983%, 99.458313%)" offset="0.0234375"/><stop stop-opacity="1" stop-color="rgb(33.66394%, 43.792725%, 99.36676%)" offset="0.0273438"/><stop stop-opacity="1" stop-color="rgb(33.930969%, 43.777466%, 99.276733%)" offset="0.03125"/><stop stop-opacity="1" stop-color="rgb(34.196472%, 43.762207%, 99.186707%)" offset="0.0351562"/><stop stop-opacity="1" stop-color="rgb(34.463501%, 43.746948%, 99.09668%)" offset="0.0390625"/><stop stop-opacity="1" stop-color="rgb(34.729004%, 43.731689%, 99.006653%)" offset="0.0429687"/><stop stop-opacity="1" stop-color="rgb(34.996033%, 43.716431%, 98.916626%)" offset="0.046875"/><stop stop-opacity="1" stop-color="rgb(35.261536%, 43.701172%, 98.826599%)" offset="0.0507812"/><stop stop-opacity="1" stop-color="rgb(35.528564%, 43.685913%, 98.736572%)" offset="0.0546875"/><stop stop-opacity="1" stop-color="rgb(35.794067%, 43.670654%, 98.64502%)" offset="0.0585938"/><stop stop-opacity="1" stop-color="rgb(36.061096%, 43.655396%, 98.554993%)" offset="0.0625"/><stop stop-opacity="1" stop-color="rgb(36.328125%, 43.640137%, 98.464966%)" offset="0.0664062"/><stop stop-opacity="1" stop-color="rgb(36.595154%, 43.624878%, 98.374939%)" offset="0.0703125"/><stop stop-opacity="1" stop-color="rgb(36.860657%, 43.609619%, 98.284912%)" offset="0.0742187"/><stop stop-opacity="1" stop-color="rgb(37.127686%, 43.59436%, 98.194885%)" offset="0.078125"/><stop stop-opacity="1" stop-color="rgb(37.393188%, 43.579102%, 98.104858%)" offset="0.0820312"/><stop stop-opacity="1" stop-color="rgb(37.660217%, 43.563843%, 98.014832%)" offset="0.0859375"/><stop stop-opacity="1" stop-color="rgb(37.92572%, 43.548584%, 97.923279%)" offset="0.0898437"/><stop stop-opacity="1" stop-color="rgb(38.192749%, 43.533325%, 97.833252%)" offset="0.09375"/><stop stop-opacity="1" stop-color="rgb(38.458252%, 43.518066%, 97.743225%)" offset="0.0976562"/><stop stop-opacity="1" stop-color="rgb(38.725281%, 43.502808%, 97.653198%)" offset="0.101562"/><stop stop-opacity="1" stop-color="rgb(38.99231%, 43.487549%, 97.563171%)" offset="0.105469"/><stop stop-opacity="1" stop-color="rgb(39.259338%, 43.47229%, 97.473145%)" offset="0.109375"/><stop stop-opacity="1" stop-color="rgb(39.524841%, 43.457031%, 97.381592%)" offset="0.113281"/><stop stop-opacity="1" stop-color="rgb(39.79187%, 43.441772%, 97.291565%)" offset="0.117188"/><stop stop-opacity="1" stop-color="rgb(40.057373%, 43.426514%, 97.201538%)" offset="0.121094"/><stop stop-opacity="1" stop-color="rgb(40.324402%, 43.411255%, 97.111511%)" offset="0.125"/><stop stop-opacity="1" stop-color="rgb(40.589905%, 43.395996%, 97.021484%)" offset="0.128906"/><stop stop-opacity="1" stop-color="rgb(40.856934%, 43.380737%, 96.931458%)" offset="0.132812"/><stop stop-opacity="1" stop-color="rgb(41.122437%, 43.365479%, 96.841431%)" offset="0.136719"/><stop stop-opacity="1" stop-color="rgb(41.389465%, 43.35022%, 96.751404%)" offset="0.140625"/><stop stop-opacity="1" stop-color="rgb(41.654968%, 43.334961%, 96.659851%)" offset="0.144531"/><stop stop-opacity="1" stop-color="rgb(41.921997%, 43.319702%, 96.569824%)" offset="0.148437"/><stop stop-opacity="1" stop-color="rgb(42.189026%, 43.304443%, 96.479797%)" offset="0.152344"/><stop stop-opacity="1" stop-color="rgb(42.456055%, 43.289185%, 96.389771%)" offset="0.15625"/><stop stop-opacity="1" stop-color="rgb(42.721558%, 43.273926%, 96.299744%)" offset="0.160156"/><stop stop-opacity="1" stop-color="rgb(42.988586%, 43.258667%, 96.209717%)" offset="0.164062"/><stop stop-opacity="1" stop-color="rgb(43.254089%, 43.243408%, 96.11969%)" offset="0.167969"/><stop stop-opacity="1" stop-color="rgb(43.521118%, 43.229675%, 96.029663%)" offset="0.171875"/><stop stop-opacity="1" stop-color="rgb(43.786621%, 43.214417%, 95.93811%)" offset="0.175781"/><stop stop-opacity="1" stop-color="rgb(44.05365%, 43.199158%, 95.848083%)" offset="0.179687"/><stop stop-opacity="1" stop-color="rgb(44.319153%, 43.183899%, 95.758057%)" offset="0.183594"/><stop stop-opacity="1" stop-color="rgb(44.586182%, 43.16864%, 95.66803%)" offset="0.1875"/><stop stop-opacity="1" stop-color="rgb(44.85321%, 43.153381%, 95.578003%)" offset="0.191406"/><stop stop-opacity="1" stop-color="rgb(45.120239%, 43.138123%, 95.487976%)" offset="0.195312"/><stop stop-opacity="1" stop-color="rgb(45.385742%, 43.122864%, 95.396423%)" offset="0.199219"/><stop stop-opacity="1" stop-color="rgb(45.652771%, 43.107605%, 95.306396%)" offset="0.203125"/><stop stop-opacity="1" stop-color="rgb(45.918274%, 43.092346%, 95.21637%)" offset="0.207031"/><stop stop-opacity="1" stop-color="rgb(46.185303%, 43.077087%, 95.126343%)" offset="0.210938"/><stop stop-opacity="1" stop-color="rgb(46.450806%, 43.061829%, 95.036316%)" offset="0.214844"/><stop stop-opacity="1" stop-color="rgb(46.717834%, 43.04657%, 94.946289%)" offset="0.21875"/><stop stop-opacity="1" stop-color="rgb(46.983337%, 43.031311%, 94.856262%)" offset="0.222656"/><stop stop-opacity="1" stop-color="rgb(47.250366%, 43.016052%, 94.766235%)" offset="0.226562"/><stop stop-opacity="1" stop-color="rgb(47.515869%, 43.000793%, 94.674683%)" offset="0.230469"/><stop stop-opacity="1" stop-color="rgb(47.782898%, 42.985535%, 94.584656%)" offset="0.234375"/><stop stop-opacity="1" stop-color="rgb(48.049927%, 42.970276%, 94.494629%)" offset="0.238281"/><stop stop-opacity="1" stop-color="rgb(48.316956%, 42.955017%, 94.404602%)" offset="0.242188"/><stop stop-opacity="1" stop-color="rgb(48.582458%, 42.939758%, 94.314575%)" offset="0.246094"/><stop stop-opacity="1" stop-color="rgb(48.849487%, 42.9245%, 94.224548%)" offset="0.25"/><stop stop-opacity="1" stop-color="rgb(49.11499%, 42.909241%, 94.134521%)" offset="0.253906"/><stop stop-opacity="1" stop-color="rgb(49.382019%, 42.893982%, 94.044495%)" offset="0.257812"/><stop stop-opacity="1" stop-color="rgb(49.647522%, 42.878723%, 93.952942%)" offset="0.261719"/><stop stop-opacity="1" stop-color="rgb(49.914551%, 42.863464%, 93.862915%)" offset="0.265625"/><stop stop-opacity="1" stop-color="rgb(50.180054%, 42.848206%, 93.772888%)" offset="0.269531"/><stop stop-opacity="1" stop-color="rgb(50.447083%, 42.832947%, 93.682861%)" offset="0.273437"/><stop stop-opacity="1" stop-color="rgb(50.714111%, 42.817688%, 93.592834%)" offset="0.277344"/><stop stop-opacity="1" stop-color="rgb(50.98114%, 42.802429%, 93.502808%)" offset="0.28125"/><stop stop-opacity="1" stop-color="rgb(51.246643%, 42.78717%, 93.411255%)" offset="0.285156"/><stop stop-opacity="1" stop-color="rgb(51.513672%, 42.771912%, 93.321228%)" offset="0.289062"/><stop stop-opacity="1" stop-color="rgb(51.779175%, 42.756653%, 93.231201%)" offset="0.292969"/><stop stop-opacity="1" stop-color="rgb(52.046204%, 42.741394%, 93.141174%)" offset="0.296875"/><stop stop-opacity="1" stop-color="rgb(52.311707%, 42.726135%, 93.051147%)" offset="0.300781"/><stop stop-opacity="1" stop-color="rgb(52.578735%, 42.710876%, 92.961121%)" offset="0.304687"/><stop stop-opacity="1" stop-color="rgb(52.844238%, 42.695618%, 92.871094%)" offset="0.308594"/><stop stop-opacity="1" stop-color="rgb(53.111267%, 42.680359%, 92.781067%)" offset="0.3125"/><stop stop-opacity="1" stop-color="rgb(53.37677%, 42.6651%, 92.689514%)" offset="0.316406"/><stop stop-opacity="1" stop-color="rgb(53.643799%, 42.649841%, 92.599487%)" offset="0.320312"/><stop stop-opacity="1" stop-color="rgb(53.910828%, 42.634583%, 92.50946%)" offset="0.324219"/><stop stop-opacity="1" stop-color="rgb(54.177856%, 42.619324%, 92.419434%)" offset="0.328125"/><stop stop-opacity="1" stop-color="rgb(54.443359%, 42.604065%, 92.329407%)" offset="0.332031"/><stop stop-opacity="1" stop-color="rgb(54.710388%, 42.588806%, 92.23938%)" offset="0.335937"/><stop stop-opacity="1" stop-color="rgb(54.975891%, 42.573547%, 92.149353%)" offset="0.339844"/><stop stop-opacity="1" stop-color="rgb(55.24292%, 42.558289%, 92.059326%)" offset="0.34375"/><stop stop-opacity="1" stop-color="rgb(55.508423%, 42.54303%, 91.967773%)" offset="0.347656"/><stop stop-opacity="1" stop-color="rgb(55.775452%, 42.527771%, 91.877747%)" offset="0.351562"/><stop stop-opacity="1" stop-color="rgb(56.040955%, 42.512512%, 91.78772%)" offset="0.355469"/><stop stop-opacity="1" stop-color="rgb(56.307983%, 42.497253%, 91.697693%)" offset="0.359375"/><stop stop-opacity="1" stop-color="rgb(56.575012%, 42.481995%, 91.607666%)" offset="0.363281"/><stop stop-opacity="1" stop-color="rgb(56.842041%, 42.466736%, 91.517639%)" offset="0.367187"/><stop stop-opacity="1" stop-color="rgb(57.107544%, 42.451477%, 91.426086%)" offset="0.371094"/><stop stop-opacity="1" stop-color="rgb(57.374573%, 42.436218%, 91.33606%)" offset="0.375"/><stop stop-opacity="1" stop-color="rgb(57.640076%, 42.420959%, 91.246033%)" offset="0.378906"/><stop stop-opacity="1" stop-color="rgb(57.907104%, 42.405701%, 91.156006%)" offset="0.382812"/><stop stop-opacity="1" stop-color="rgb(58.172607%, 42.390442%, 91.065979%)" offset="0.386719"/><stop stop-opacity="1" stop-color="rgb(58.439636%, 42.375183%, 90.975952%)" offset="0.390625"/><stop stop-opacity="1" stop-color="rgb(58.705139%, 42.359924%, 90.885925%)" offset="0.394531"/><stop stop-opacity="1" stop-color="rgb(58.972168%, 42.344666%, 90.795898%)" offset="0.398438"/><stop stop-opacity="1" stop-color="rgb(59.239197%, 42.329407%, 90.704346%)" offset="0.402344"/><stop stop-opacity="1" stop-color="rgb(59.506226%, 42.314148%, 90.614319%)" offset="0.40625"/><stop stop-opacity="1" stop-color="rgb(59.771729%, 42.298889%, 90.524292%)" offset="0.410156"/><stop stop-opacity="1" stop-color="rgb(60.038757%, 42.285156%, 90.434265%)" offset="0.414062"/><stop stop-opacity="1" stop-color="rgb(60.30426%, 42.269897%, 90.344238%)" offset="0.417969"/><stop stop-opacity="1" stop-color="rgb(60.571289%, 42.254639%, 90.254211%)" offset="0.421875"/><stop stop-opacity="1" stop-color="rgb(60.836792%, 42.23938%, 90.164185%)" offset="0.425781"/><stop stop-opacity="1" stop-color="rgb(61.103821%, 42.224121%, 90.074158%)" offset="0.429688"/><stop stop-opacity="1" stop-color="rgb(61.369324%, 42.208862%, 89.982605%)" offset="0.433594"/><stop stop-opacity="1" stop-color="rgb(61.636353%, 42.193604%, 89.892578%)" offset="0.4375"/><stop stop-opacity="1" stop-color="rgb(61.901855%, 42.178345%, 89.802551%)" offset="0.441406"/><stop stop-opacity="1" stop-color="rgb(62.168884%, 42.163086%, 89.712524%)" offset="0.445312"/><stop stop-opacity="1" stop-color="rgb(62.435913%, 42.147827%, 89.622498%)" offset="0.449219"/><stop stop-opacity="1" stop-color="rgb(62.702942%, 42.132568%, 89.532471%)" offset="0.453125"/><stop stop-opacity="1" stop-color="rgb(62.968445%, 42.11731%, 89.440918%)" offset="0.457031"/><stop stop-opacity="1" stop-color="rgb(63.235474%, 42.102051%, 89.350891%)" offset="0.460938"/><stop stop-opacity="1" stop-color="rgb(63.500977%, 42.086792%, 89.260864%)" offset="0.464844"/><stop stop-opacity="1" stop-color="rgb(63.768005%, 42.071533%, 89.170837%)" offset="0.46875"/><stop stop-opacity="1" stop-color="rgb(64.033508%, 42.056274%, 89.080811%)" offset="0.472656"/><stop stop-opacity="1" stop-color="rgb(64.300537%, 42.041016%, 88.990784%)" offset="0.476562"/><stop stop-opacity="1" stop-color="rgb(64.56604%, 42.025757%, 88.900757%)" offset="0.480469"/><stop stop-opacity="1" stop-color="rgb(64.833069%, 42.010498%, 88.81073%)" offset="0.484375"/><stop stop-opacity="1" stop-color="rgb(65.100098%, 41.995239%, 88.719177%)" offset="0.488281"/><stop stop-opacity="1" stop-color="rgb(65.367126%, 41.97998%, 88.62915%)" offset="0.492188"/><stop stop-opacity="1" stop-color="rgb(65.632629%, 41.964722%, 88.539124%)" offset="0.496094"/><stop stop-opacity="1" stop-color="rgb(65.899658%, 41.949463%, 88.449097%)" offset="0.5"/><stop stop-opacity="1" stop-color="rgb(66.165161%, 41.934204%, 88.35907%)" offset="0.503906"/><stop stop-opacity="1" stop-color="rgb(66.43219%, 41.918945%, 88.269043%)" offset="0.507812"/><stop stop-opacity="1" stop-color="rgb(66.697693%, 41.903687%, 88.179016%)" offset="0.511719"/><stop stop-opacity="1" stop-color="rgb(66.964722%, 41.888428%, 88.088989%)" offset="0.515625"/><stop stop-opacity="1" stop-color="rgb(67.230225%, 41.873169%, 87.997437%)" offset="0.519531"/><stop stop-opacity="1" stop-color="rgb(67.497253%, 41.85791%, 87.90741%)" offset="0.523437"/><stop stop-opacity="1" stop-color="rgb(67.762756%, 41.842651%, 87.817383%)" offset="0.527344"/><stop stop-opacity="1" stop-color="rgb(68.029785%, 41.827393%, 87.727356%)" offset="0.53125"/><stop stop-opacity="1" stop-color="rgb(68.296814%, 41.812134%, 87.637329%)" offset="0.535156"/><stop stop-opacity="1" stop-color="rgb(68.563843%, 41.796875%, 87.547302%)" offset="0.539062"/><stop stop-opacity="1" stop-color="rgb(68.829346%, 41.781616%, 87.45575%)" offset="0.542969"/><stop stop-opacity="1" stop-color="rgb(69.096375%, 41.766357%, 87.365723%)" offset="0.546875"/><stop stop-opacity="1" stop-color="rgb(69.361877%, 41.751099%, 87.275696%)" offset="0.550781"/><stop stop-opacity="1" stop-color="rgb(69.628906%, 41.73584%, 87.185669%)" offset="0.554687"/><stop stop-opacity="1" stop-color="rgb(69.894409%, 41.720581%, 87.095642%)" offset="0.558594"/><stop stop-opacity="1" stop-color="rgb(70.161438%, 41.705322%, 87.005615%)" offset="0.5625"/><stop stop-opacity="1" stop-color="rgb(70.426941%, 41.690063%, 86.915588%)" offset="0.566406"/><stop stop-opacity="1" stop-color="rgb(70.69397%, 41.674805%, 86.825562%)" offset="0.570312"/><stop stop-opacity="1" stop-color="rgb(70.960999%, 41.659546%, 86.734009%)" offset="0.574219"/><stop stop-opacity="1" stop-color="rgb(71.228027%, 41.644287%, 86.643982%)" offset="0.578125"/><stop stop-opacity="1" stop-color="rgb(71.49353%, 41.629028%, 86.553955%)" offset="0.582031"/><stop stop-opacity="1" stop-color="rgb(71.760559%, 41.61377%, 86.463928%)" offset="0.585937"/><stop stop-opacity="1" stop-color="rgb(72.026062%, 41.598511%, 86.373901%)" offset="0.589844"/><stop stop-opacity="1" stop-color="rgb(72.293091%, 41.583252%, 86.283875%)" offset="0.59375"/><stop stop-opacity="1" stop-color="rgb(72.558594%, 41.567993%, 86.193848%)" offset="0.597656"/><stop stop-opacity="1" stop-color="rgb(72.825623%, 41.552734%, 86.103821%)" offset="0.601562"/><stop stop-opacity="1" stop-color="rgb(73.091125%, 41.537476%, 86.012268%)" offset="0.605469"/><stop stop-opacity="1" stop-color="rgb(73.358154%, 41.522217%, 85.922241%)" offset="0.609375"/><stop stop-opacity="1" stop-color="rgb(73.623657%, 41.506958%, 85.832214%)" offset="0.613281"/><stop stop-opacity="1" stop-color="rgb(73.890686%, 41.491699%, 85.742188%)" offset="0.617187"/><stop stop-opacity="1" stop-color="rgb(74.157715%, 41.47644%, 85.652161%)" offset="0.621094"/><stop stop-opacity="1" stop-color="rgb(74.424744%, 41.461182%, 85.562134%)" offset="0.625"/><stop stop-opacity="1" stop-color="rgb(74.690247%, 41.445923%, 85.470581%)" offset="0.628906"/><stop stop-opacity="1" stop-color="rgb(74.957275%, 41.430664%, 85.380554%)" offset="0.632812"/><stop stop-opacity="1" stop-color="rgb(75.222778%, 41.415405%, 85.290527%)" offset="0.636719"/><stop stop-opacity="1" stop-color="rgb(75.489807%, 41.400146%, 85.2005%)" offset="0.640625"/><stop stop-opacity="1" stop-color="rgb(75.75531%, 41.384888%, 85.110474%)" offset="0.644531"/><stop stop-opacity="1" stop-color="rgb(76.022339%, 41.369629%, 85.020447%)" offset="0.648437"/><stop stop-opacity="1" stop-color="rgb(76.287842%, 41.35437%, 84.93042%)" offset="0.652344"/><stop stop-opacity="1" stop-color="rgb(76.554871%, 41.339111%, 84.840393%)" offset="0.65625"/><stop stop-opacity="1" stop-color="rgb(76.821899%, 41.323853%, 84.74884%)" offset="0.660156"/><stop stop-opacity="1" stop-color="rgb(77.088928%, 41.31012%, 84.658813%)" offset="0.664062"/><stop stop-opacity="1" stop-color="rgb(77.354431%, 41.294861%, 84.568787%)" offset="0.667969"/><stop stop-opacity="1" stop-color="rgb(77.62146%, 41.279602%, 84.47876%)" offset="0.671875"/><stop stop-opacity="1" stop-color="rgb(77.886963%, 41.264343%, 84.388733%)" offset="0.675781"/><stop stop-opacity="1" stop-color="rgb(78.153992%, 41.249084%, 84.298706%)" offset="0.679687"/><stop stop-opacity="1" stop-color="rgb(78.419495%, 41.233826%, 84.208679%)" offset="0.683594"/><stop stop-opacity="1" stop-color="rgb(78.686523%, 41.218567%, 84.118652%)" offset="0.6875"/><stop stop-opacity="1" stop-color="rgb(78.952026%, 41.203308%, 84.0271%)" offset="0.691406"/><stop stop-opacity="1" stop-color="rgb(79.219055%, 41.188049%, 83.937073%)" offset="0.695312"/><stop stop-opacity="1" stop-color="rgb(79.486084%, 41.172791%, 83.847046%)" offset="0.699219"/><stop stop-opacity="1" stop-color="rgb(79.753113%, 41.157532%, 83.757019%)" offset="0.703125"/><stop stop-opacity="1" stop-color="rgb(80.018616%, 41.142273%, 83.666992%)" offset="0.707031"/><stop stop-opacity="1" stop-color="rgb(80.285645%, 41.127014%, 83.576965%)" offset="0.710937"/><stop stop-opacity="1" stop-color="rgb(80.551147%, 41.111755%, 83.485413%)" offset="0.714844"/><stop stop-opacity="1" stop-color="rgb(80.818176%, 41.096497%, 83.395386%)" offset="0.71875"/><stop stop-opacity="1" stop-color="rgb(81.083679%, 41.081238%, 83.305359%)" offset="0.722656"/><stop stop-opacity="1" stop-color="rgb(81.350708%, 41.065979%, 83.215332%)" offset="0.726562"/><stop stop-opacity="1" stop-color="rgb(81.616211%, 41.05072%, 83.125305%)" offset="0.730469"/><stop stop-opacity="1" stop-color="rgb(81.88324%, 41.035461%, 83.035278%)" offset="0.734375"/><stop stop-opacity="1" stop-color="rgb(82.148743%, 41.020203%, 82.945251%)" offset="0.738281"/><stop stop-opacity="1" stop-color="rgb(82.415771%, 41.004944%, 82.855225%)" offset="0.742187"/><stop stop-opacity="1" stop-color="rgb(82.6828%, 40.989685%, 82.763672%)" offset="0.746094"/><stop stop-opacity="1" stop-color="rgb(82.949829%, 40.974426%, 82.673645%)" offset="0.75"/><stop stop-opacity="1" stop-color="rgb(83.215332%, 40.959167%, 82.583618%)" offset="0.753906"/><stop stop-opacity="1" stop-color="rgb(83.482361%, 40.943909%, 82.493591%)" offset="0.757812"/><stop stop-opacity="1" stop-color="rgb(83.747864%, 40.92865%, 82.403564%)" offset="0.761719"/><stop stop-opacity="1" stop-color="rgb(84.014893%, 40.913391%, 82.313538%)" offset="0.765625"/><stop stop-opacity="1" stop-color="rgb(84.280396%, 40.898132%, 82.223511%)" offset="0.769531"/><stop stop-opacity="1" stop-color="rgb(84.547424%, 40.882874%, 82.133484%)" offset="0.773438"/><stop stop-opacity="1" stop-color="rgb(84.812927%, 40.867615%, 82.041931%)" offset="0.777344"/><stop stop-opacity="1" stop-color="rgb(85.079956%, 40.852356%, 81.951904%)" offset="0.78125"/><stop stop-opacity="1" stop-color="rgb(85.346985%, 40.837097%, 81.861877%)" offset="0.785156"/><stop stop-opacity="1" stop-color="rgb(85.614014%, 40.821838%, 81.771851%)" offset="0.789062"/><stop stop-opacity="1" stop-color="rgb(85.879517%, 40.80658%, 81.681824%)" offset="0.792969"/><stop stop-opacity="1" stop-color="rgb(86.146545%, 40.791321%, 81.591797%)" offset="0.796875"/><stop stop-opacity="1" stop-color="rgb(86.412048%, 40.776062%, 81.500244%)" offset="0.800781"/><stop stop-opacity="1" stop-color="rgb(86.679077%, 40.760803%, 81.410217%)" offset="0.804688"/><stop stop-opacity="1" stop-color="rgb(86.94458%, 40.745544%, 81.32019%)" offset="0.808594"/><stop stop-opacity="1" stop-color="rgb(87.211609%, 40.730286%, 81.230164%)" offset="0.8125"/><stop stop-opacity="1" stop-color="rgb(87.477112%, 40.715027%, 81.140137%)" offset="0.816406"/><stop stop-opacity="1" stop-color="rgb(87.744141%, 40.699768%, 81.05011%)" offset="0.820312"/><stop stop-opacity="1" stop-color="rgb(88.009644%, 40.684509%, 80.960083%)" offset="0.824219"/><stop stop-opacity="1" stop-color="rgb(88.276672%, 40.66925%, 80.870056%)" offset="0.828125"/><stop stop-opacity="1" stop-color="rgb(88.543701%, 40.653992%, 80.778503%)" offset="0.832031"/><stop stop-opacity="1" stop-color="rgb(88.81073%, 40.638733%, 80.688477%)" offset="0.835938"/><stop stop-opacity="1" stop-color="rgb(89.076233%, 40.623474%, 80.59845%)" offset="0.839844"/><stop stop-opacity="1" stop-color="rgb(89.343262%, 40.608215%, 80.508423%)" offset="0.84375"/><stop stop-opacity="1" stop-color="rgb(89.608765%, 40.592957%, 80.418396%)" offset="0.847656"/><stop stop-opacity="1" stop-color="rgb(89.875793%, 40.577698%, 80.328369%)" offset="0.851562"/><stop stop-opacity="1" stop-color="rgb(90.141296%, 40.562439%, 80.238342%)" offset="0.855469"/><stop stop-opacity="1" stop-color="rgb(90.408325%, 40.54718%, 80.148315%)" offset="0.859375"/><stop stop-opacity="1" stop-color="rgb(90.673828%, 40.531921%, 80.056763%)" offset="0.863281"/><stop stop-opacity="1" stop-color="rgb(90.940857%, 40.516663%, 79.966736%)" offset="0.867188"/><stop stop-opacity="1" stop-color="rgb(91.207886%, 40.501404%, 79.876709%)" offset="0.871094"/><stop stop-opacity="1" stop-color="rgb(91.474915%, 40.486145%, 79.786682%)" offset="0.875"/><stop stop-opacity="1" stop-color="rgb(91.740417%, 40.470886%, 79.696655%)" offset="0.878906"/><stop stop-opacity="1" stop-color="rgb(92.007446%, 40.455627%, 79.606628%)" offset="0.882812"/><stop stop-opacity="1" stop-color="rgb(92.272949%, 40.440369%, 79.515076%)" offset="0.886719"/><stop stop-opacity="1" stop-color="rgb(92.539978%, 40.42511%, 79.425049%)" offset="0.890625"/><stop stop-opacity="1" stop-color="rgb(92.805481%, 40.409851%, 79.335022%)" offset="0.894531"/><stop stop-opacity="1" stop-color="rgb(93.07251%, 40.394592%, 79.244995%)" offset="0.898438"/><stop stop-opacity="1" stop-color="rgb(93.338013%, 40.379333%, 79.154968%)" offset="0.902344"/><stop stop-opacity="1" stop-color="rgb(93.605042%, 40.365601%, 79.064941%)" offset="0.90625"/><stop stop-opacity="1" stop-color="rgb(93.870544%, 40.350342%, 78.974915%)" offset="0.910156"/><stop stop-opacity="1" stop-color="rgb(94.137573%, 40.335083%, 78.884888%)" offset="0.914062"/><stop stop-opacity="1" stop-color="rgb(94.404602%, 40.319824%, 78.793335%)" offset="0.917969"/><stop stop-opacity="1" stop-color="rgb(94.671631%, 40.304565%, 78.703308%)" offset="0.921875"/><stop stop-opacity="1" stop-color="rgb(94.937134%, 40.289307%, 78.613281%)" offset="0.925781"/><stop stop-opacity="1" stop-color="rgb(95.204163%, 40.274048%, 78.523254%)" offset="0.929688"/><stop stop-opacity="1" stop-color="rgb(95.469666%, 40.258789%, 78.433228%)" offset="0.933594"/><stop stop-opacity="1" stop-color="rgb(95.736694%, 40.24353%, 78.343201%)" offset="0.9375"/><stop stop-opacity="1" stop-color="rgb(96.002197%, 40.228271%, 78.253174%)" offset="0.941406"/><stop stop-opacity="1" stop-color="rgb(96.269226%, 40.213013%, 78.163147%)" offset="0.945312"/><stop stop-opacity="1" stop-color="rgb(96.534729%, 40.197754%, 78.071594%)" offset="0.949219"/><stop stop-opacity="1" stop-color="rgb(96.801758%, 40.182495%, 77.981567%)" offset="0.953125"/><stop stop-opacity="1" stop-color="rgb(97.068787%, 40.167236%, 77.891541%)" offset="0.957031"/><stop stop-opacity="1" stop-color="rgb(97.335815%, 40.151978%, 77.801514%)" offset="0.960938"/><stop stop-opacity="1" stop-color="rgb(97.601318%, 40.136719%, 77.711487%)" offset="0.964844"/><stop stop-opacity="1" stop-color="rgb(97.868347%, 40.12146%, 77.62146%)" offset="0.96875"/><stop stop-opacity="1" stop-color="rgb(98.13385%, 40.106201%, 77.531433%)" offset="0.972656"/><stop stop-opacity="1" stop-color="rgb(98.400879%, 40.090942%, 77.441406%)" offset="0.976562"/><stop stop-opacity="1" stop-color="rgb(98.666382%, 40.075684%, 77.349854%)" offset="0.980469"/><stop stop-opacity="1" stop-color="rgb(98.933411%, 40.060425%, 77.259827%)" offset="0.984375"/><stop stop-opacity="1" stop-color="rgb(99.198914%, 40.045166%, 77.1698%)" offset="0.988281"/><stop stop-opacity="1" stop-color="rgb(99.465942%, 40.029907%, 77.079773%)" offset="0.992188"/><stop stop-opacity="1" stop-color="rgb(99.731445%, 40.014648%, 76.989746%)" offset="0.996094"/><stop stop-opacity="1" stop-color="rgb(99.998474%, 39.99939%, 76.899719%)" offset="1"/></linearGradient><clipPath id="eb54c586df"><path d="M 167.238281 221.71875 L 207.734375 221.71875 L 207.734375 241.21875 L 167.238281 241.21875 Z M 167.238281 221.71875 " clip-rule="nonzero"/></clipPath><clipPath id="d486e80d4a"><path d="M 176.984375 221.71875 L 198.011719 221.71875 C 203.390625 221.71875 207.753906 226.082031 207.753906 231.460938 C 207.753906 236.84375 203.390625 241.207031 198.011719 241.207031 L 176.984375 241.207031 C 171.601562 241.207031 167.238281 236.84375 167.238281 231.460938 C 167.238281 226.082031 171.601562 221.71875 176.984375 221.71875 Z M 176.984375 221.71875 " clip-rule="nonzero"/></clipPath></defs><rect x="-37.5" fill="url(#12ad1b983d)" width="450" y="-37.499999" height="449.999989"/><g fill="#2b2b2b" fill-opacity="1"><g transform="translate(100.037752, 191.814026)"><g><path d="M 42.5625 -50.59375 C 42.5625 -48.601562 42.453125 -46.625 42.234375 -44.65625 C 42.015625 -42.695312 41.71875 -40.722656 41.34375 -38.734375 C 40.976562 -36.867188 40.5625 -34.972656 40.09375 -33.046875 C 39.625 -31.117188 39.046875 -29.25 38.359375 -27.4375 C 37.679688 -25.695312 36.953125 -23.941406 36.171875 -22.171875 C 35.390625 -20.398438 34.628906 -18.640625 33.890625 -16.890625 C 33.765625 -16.640625 33.703125 -16.484375 33.703125 -16.421875 C 33.515625 -16.117188 33.328125 -15.796875 33.140625 -15.453125 C 32.953125 -15.109375 32.796875 -14.78125 32.671875 -14.46875 C 31.859375 -13.039062 31.050781 -11.703125 30.25 -10.453125 C 29.75 -9.703125 28.921875 -8.6875 27.765625 -7.40625 C 26.617188 -6.132812 25.296875 -4.878906 23.796875 -3.640625 C 22.304688 -2.398438 20.8125 -1.40625 19.3125 -0.65625 C 17.820312 0.09375 16.453125 0.3125 15.203125 0 C 13.960938 -0.3125 13.003906 -1.398438 12.328125 -3.265625 C 12.140625 -3.765625 11.96875 -4.273438 11.8125 -4.796875 C 11.65625 -5.328125 11.515625 -5.84375 11.390625 -6.34375 C 10.015625 -6.84375 9.328125 -7.867188 9.328125 -9.421875 C 9.390625 -10.296875 9.40625 -11.195312 9.375 -12.125 C 9.34375 -13.0625 9.265625 -14 9.140625 -14.9375 C 9.140625 -15.125 9.109375 -15.25 9.046875 -15.3125 C 8.992188 -15.625 8.96875 -15.898438 8.96875 -16.140625 C 8.96875 -16.390625 8.96875 -16.640625 8.96875 -16.890625 C 8.90625 -17.578125 8.828125 -18.226562 8.734375 -18.84375 C 8.640625 -19.46875 8.5625 -20.09375 8.5 -20.71875 C 8.0625 -24.269531 7.5 -27.816406 6.8125 -31.359375 C 6.5 -33.171875 6.171875 -34.976562 5.828125 -36.78125 C 5.492188 -38.582031 5.140625 -40.351562 4.765625 -42.09375 C 4.390625 -43.90625 3.984375 -45.695312 3.546875 -47.46875 C 3.109375 -49.238281 2.765625 -50.992188 2.515625 -52.734375 C 2.453125 -52.921875 2.515625 -53.046875 2.703125 -53.109375 C 2.890625 -53.171875 3.015625 -53.140625 3.078125 -53.015625 L 3.921875 -51.25 C 3.671875 -51.988281 3.390625 -52.960938 3.078125 -54.171875 C 2.765625 -55.390625 2.609375 -56.601562 2.609375 -57.8125 C 2.609375 -59.03125 2.90625 -60.046875 3.5 -60.859375 C 4.09375 -61.671875 5.101562 -62.015625 6.53125 -61.890625 C 8.832031 -61.703125 10.617188 -60.734375 11.890625 -58.984375 C 13.171875 -57.242188 14.09375 -55.378906 14.65625 -53.390625 C 15.34375 -50.898438 15.960938 -48.394531 16.515625 -45.875 C 17.078125 -43.351562 17.578125 -40.816406 18.015625 -38.265625 C 18.203125 -37.398438 18.46875 -36.015625 18.8125 -34.109375 C 19.15625 -32.210938 19.507812 -30.191406 19.875 -28.046875 C 20.25 -25.898438 20.59375 -24 20.90625 -22.34375 C 21.21875 -20.695312 21.40625 -19.722656 21.46875 -19.421875 C 22.53125 -22.210938 23.476562 -25.054688 24.3125 -27.953125 C 25.15625 -30.847656 25.890625 -33.757812 26.515625 -36.6875 C 27.316406 -40.914062 27.90625 -45.191406 28.28125 -49.515625 C 28.65625 -53.835938 28.78125 -58.148438 28.65625 -62.453125 C 28.65625 -63.066406 28.953125 -63.375 29.546875 -63.375 C 30.140625 -63.375 30.460938 -63.066406 30.515625 -62.453125 C 30.828125 -54.796875 30.300781 -47.09375 28.9375 -39.34375 C 27.570312 -31.59375 25.238281 -24.203125 21.9375 -17.171875 C 22 -17.109375 22.046875 -16.953125 22.078125 -16.703125 C 22.109375 -16.453125 22.125 -16.269531 22.125 -16.15625 C 24.925781 -21.4375 27.007812 -26.660156 28.375 -31.828125 C 29.75 -36.992188 30.648438 -42.144531 31.078125 -47.28125 C 31.515625 -52.414062 31.703125 -57.566406 31.640625 -62.734375 C 33.753906 -63.160156 35.75 -62.847656 37.625 -61.796875 C 38.363281 -62.359375 39.140625 -62.296875 39.953125 -61.609375 C 40.640625 -60.984375 41.101562 -60.1875 41.34375 -59.21875 C 41.59375 -58.257812 41.84375 -57.34375 42.09375 -56.46875 C 42.34375 -55.601562 42.5 -54.640625 42.5625 -53.578125 C 42.625 -52.523438 42.625 -51.53125 42.5625 -50.59375 Z M 42.5625 -50.59375 "/></g></g></g><g fill="#2b2b2b" fill-opacity="1"><g transform="translate(135.412645, 191.814026)"><g><path d="M 34.15625 -2.796875 C 33.789062 -2.921875 33.375 -3.570312 32.90625 -4.75 C 32.4375 -5.9375 31.9375 -7.398438 31.40625 -9.140625 C 30.875 -10.890625 30.375 -12.695312 29.90625 -14.5625 C 29.445312 -16.425781 29.03125 -18.101562 28.65625 -19.59375 C 28.28125 -21.09375 28.03125 -22.1875 27.90625 -22.875 L 20.625 -22.78125 C 19.945312 -19.976562 19.359375 -17.191406 18.859375 -14.421875 C 18.359375 -11.648438 17.984375 -8.832031 17.734375 -5.96875 C 17.734375 -5.414062 17.46875 -5.140625 16.9375 -5.140625 C 16.414062 -5.140625 16.179688 -5.414062 16.234375 -5.96875 C 16.484375 -8.769531 16.84375 -11.585938 17.3125 -14.421875 C 17.78125 -17.253906 18.453125 -20.039062 19.328125 -22.78125 L 18.484375 -22.78125 C 18.171875 -21.65625 17.859375 -20.296875 17.546875 -18.703125 C 17.234375 -17.117188 16.9375 -15.566406 16.65625 -14.046875 C 16.375 -12.523438 16.140625 -11.25 15.953125 -10.21875 C 15.773438 -9.195312 15.6875 -8.6875 15.6875 -8.6875 L 15.125 -4.484375 C 14.9375 -2.367188 14.21875 -0.84375 12.96875 0.09375 C 11.726562 1.03125 10.359375 1.40625 8.859375 1.21875 C 7.367188 1.03125 6.109375 0.316406 5.078125 -0.921875 C 4.054688 -2.171875 3.703125 -3.882812 4.015625 -6.0625 C 4.390625 -8.800781 4.820312 -11.539062 5.3125 -14.28125 C 5.8125 -17.019531 6.40625 -19.726562 7.09375 -22.40625 C 6.65625 -22.34375 6.21875 -22.296875 5.78125 -22.265625 C 5.351562 -22.234375 4.953125 -22.21875 4.578125 -22.21875 C 4.703125 -22.53125 4.734375 -22.8125 4.671875 -23.0625 C 3.171875 -23.425781 2.078125 -24.226562 1.390625 -25.46875 C 0.710938 -26.71875 0.53125 -28.101562 0.84375 -29.625 C 1.15625 -31.15625 2.023438 -32.554688 3.453125 -33.828125 C 4.878906 -35.109375 6.992188 -35.96875 9.796875 -36.40625 C 10.484375 -39.519531 11.226562 -42.582031 12.03125 -45.59375 C 12.84375 -48.613281 13.84375 -51.554688 15.03125 -54.421875 C 15.59375 -55.660156 16.210938 -57.007812 16.890625 -58.46875 C 17.578125 -59.9375 18.429688 -61.210938 19.453125 -62.296875 C 20.484375 -63.390625 21.773438 -63.9375 23.328125 -63.9375 C 24.140625 -64 24.945312 -63.78125 25.75 -63.28125 C 26.5625 -62.789062 27.15625 -62.171875 27.53125 -61.421875 C 28.90625 -61.359375 30.039062 -60.875 30.9375 -59.96875 C 31.84375 -59.070312 32.359375 -57.875 32.484375 -56.375 C 32.609375 -54.507812 32.765625 -52.628906 32.953125 -50.734375 C 33.140625 -48.835938 33.328125 -46.984375 33.515625 -45.171875 C 33.578125 -45.109375 33.640625 -45.078125 33.703125 -45.078125 C 33.765625 -46.703125 33.84375 -48.304688 33.9375 -49.890625 C 34.03125 -51.472656 34.164062 -53.046875 34.34375 -54.609375 C 34.34375 -54.859375 34.390625 -54.296875 34.484375 -52.921875 C 34.578125 -51.554688 34.6875 -49.800781 34.8125 -47.65625 C 34.9375 -45.507812 35.0625 -43.359375 35.1875 -41.203125 C 35.3125 -39.054688 35.46875 -37.269531 35.65625 -35.84375 C 37.457031 -35.65625 38.851562 -35.046875 39.84375 -34.015625 C 40.84375 -32.992188 41.46875 -31.8125 41.71875 -30.46875 C 41.96875 -29.132812 41.84375 -27.8125 41.34375 -26.5 C 40.851562 -25.195312 39.953125 -24.140625 38.640625 -23.328125 C 39.265625 -20.597656 39.914062 -17.503906 40.59375 -14.046875 C 41.28125 -10.597656 41.8125 -7.472656 42.1875 -4.671875 C 42.4375 -2.554688 42.265625 -0.953125 41.671875 0.140625 C 41.085938 1.234375 40.3125 1.835938 39.34375 1.953125 C 38.375 2.078125 37.40625 1.734375 36.4375 0.921875 C 35.476562 0.117188 34.71875 -1.117188 34.15625 -2.796875 Z M 20.34375 -34.90625 C 21.03125 -35.03125 21.914062 -35.109375 23 -35.140625 C 24.09375 -35.171875 24.953125 -35.21875 25.578125 -35.28125 C 25.453125 -36.09375 25.3125 -37.242188 25.15625 -38.734375 C 25 -40.234375 24.8125 -41.835938 24.59375 -43.546875 C 24.375 -45.253906 24.109375 -46.828125 23.796875 -48.265625 C 23.054688 -45.648438 22.40625 -43.3125 21.84375 -41.25 C 21.28125 -39.195312 20.78125 -37.082031 20.34375 -34.90625 Z M 20.34375 -34.90625 "/></g></g></g><g fill="#2b2b2b" fill-opacity="1"><g transform="translate(170.787538, 191.814026)"><g><path d="M 40.515625 0.28125 C 39.953125 0.65625 39.328125 0.65625 38.640625 0.28125 C 37.398438 -0.28125 36.5625 -1.195312 36.125 -2.46875 C 35.6875 -3.75 35.34375 -4.976562 35.09375 -6.15625 L 34.53125 -9.328125 L 18.296875 -38.359375 C 18.046875 -38.671875 17.796875 -39.015625 17.546875 -39.390625 C 17.296875 -39.765625 17.046875 -40.109375 16.796875 -40.421875 C 16.859375 -37.242188 16.875 -34.066406 16.84375 -30.890625 C 16.8125 -27.722656 16.796875 -24.550781 16.796875 -21.375 C 16.921875 -19.507812 17 -17.640625 17.03125 -15.765625 C 17.0625 -13.898438 17.109375 -12.035156 17.171875 -10.171875 C 17.234375 -9.242188 17.296875 -8.109375 17.359375 -6.765625 C 17.421875 -5.429688 17.28125 -4.234375 16.9375 -3.171875 C 16.59375 -2.117188 15.769531 -1.5 14.46875 -1.3125 C 13.90625 -0.375 13.140625 0.265625 12.171875 0.609375 C 11.210938 0.953125 10.203125 0.96875 9.140625 0.65625 C 8.148438 0.40625 7.28125 -0.1875 6.53125 -1.125 C 6.28125 -5.039062 6.078125 -8.957031 5.921875 -12.875 C 5.765625 -16.800781 5.625 -20.722656 5.5 -24.640625 C 5.382812 -27.816406 5.296875 -31.003906 5.234375 -34.203125 C 5.171875 -37.410156 5.078125 -40.601562 4.953125 -43.78125 C 4.890625 -45.832031 4.84375 -47.882812 4.8125 -49.9375 C 4.78125 -51.988281 4.828125 -54.007812 4.953125 -56 C 5.566406 -56.5 6.15625 -56.78125 6.71875 -56.84375 C 6.71875 -57.59375 6.96875 -58.3125 7.46875 -59 C 8.21875 -59.925781 9.054688 -60.375 9.984375 -60.34375 C 10.921875 -60.3125 11.882812 -59.96875 12.875 -59.3125 C 13.875 -58.664062 14.773438 -57.921875 15.578125 -57.078125 C 16.390625 -56.234375 17.015625 -55.535156 17.453125 -54.984375 C 19.066406 -52.867188 20.539062 -50.703125 21.875 -48.484375 C 23.21875 -46.273438 24.515625 -44.019531 25.765625 -41.71875 C 26.816406 -39.914062 27.84375 -38.082031 28.84375 -36.21875 C 29.84375 -34.351562 30.804688 -32.453125 31.734375 -30.515625 C 31.859375 -30.273438 31.921875 -29.96875 31.921875 -29.59375 L 33.421875 -26.703125 C 33.171875 -29.066406 32.828125 -31.460938 32.390625 -33.890625 C 31.953125 -36.316406 31.515625 -38.710938 31.078125 -41.078125 C 30.765625 -42.753906 30.453125 -44.429688 30.140625 -46.109375 C 29.835938 -47.785156 29.4375 -49.46875 28.9375 -51.15625 C 28.6875 -52.019531 28.453125 -52.90625 28.234375 -53.8125 C 28.015625 -54.71875 28.15625 -55.632812 28.65625 -56.5625 C 29.09375 -57.3125 29.625 -57.875 30.25 -58.25 C 30.25 -58.3125 30.265625 -58.34375 30.296875 -58.34375 C 30.328125 -58.34375 30.34375 -58.375 30.34375 -58.4375 C 30.894531 -59.488281 31.742188 -60.015625 32.890625 -60.015625 C 34.046875 -60.015625 35.03125 -59.738281 35.84375 -59.1875 C 36.03125 -59.125 36.25 -58.96875 36.5 -58.71875 C 36.6875 -57.84375 36.90625 -56.953125 37.15625 -56.046875 C 37.40625 -55.148438 37.648438 -54.265625 37.890625 -53.390625 C 38.640625 -50.710938 39.265625 -47.957031 39.765625 -45.125 C 40.265625 -42.300781 40.734375 -39.488281 41.171875 -36.6875 C 42.097656 -31.019531 42.84375 -25.289062 43.40625 -19.5 C 43.96875 -13.71875 44.4375 -7.960938 44.8125 -2.234375 C 44.3125 -1.554688 43.6875 -0.96875 42.9375 -0.46875 C 42.1875 0.03125 41.378906 0.28125 40.515625 0.28125 Z M 45.734375 -3.171875 C 45.609375 -3.171875 45.484375 -3.078125 45.359375 -2.890625 C 44.742188 -11.785156 43.890625 -20.664062 42.796875 -29.53125 C 41.710938 -38.40625 40.203125 -47.164062 38.265625 -55.8125 C 38.140625 -56.1875 38.234375 -56.53125 38.546875 -56.84375 C 38.796875 -57.15625 39.140625 -57.296875 39.578125 -57.265625 C 40.015625 -57.234375 40.265625 -56.96875 40.328125 -56.46875 C 42.003906 -48.382812 43.320312 -40.21875 44.28125 -31.96875 C 45.25 -23.726562 45.703125 -15.46875 45.640625 -7.1875 C 45.703125 -6.875 45.75 -6.296875 45.78125 -5.453125 C 45.8125 -4.617188 45.796875 -3.859375 45.734375 -3.171875 Z M 4.859375 -9.984375 C 4.609375 -13.285156 4.421875 -16.722656 4.296875 -20.296875 C 4.171875 -23.878906 4.046875 -27.347656 3.921875 -30.703125 C 3.796875 -34.003906 3.703125 -37.332031 3.640625 -40.6875 C 3.578125 -44.050781 3.515625 -47.414062 3.453125 -50.78125 C 3.390625 -51.59375 3.421875 -52.414062 3.546875 -53.25 C 3.671875 -54.09375 3.890625 -54.890625 4.203125 -55.640625 C 4.140625 -54.140625 4.125 -52.640625 4.15625 -51.140625 C 4.1875 -49.648438 4.234375 -48.160156 4.296875 -46.671875 C 4.359375 -43.429688 4.4375 -40.191406 4.53125 -36.953125 C 4.625 -33.722656 4.703125 -30.457031 4.765625 -27.15625 L 5.59375 -6.15625 C 5.59375 -6.15625 5.515625 -6.296875 5.359375 -6.578125 C 5.210938 -6.859375 5.046875 -7.992188 4.859375 -9.984375 Z M 15.3125 -14.5625 L 15.03125 -14.28125 C 15.03125 -14.28125 15.015625 -14.28125 14.984375 -14.28125 C 14.953125 -14.28125 14.90625 -14.25 14.84375 -14.1875 L 14.75 -8.59375 C 14.75 -7.84375 14.890625 -6.953125 15.171875 -5.921875 C 15.453125 -4.898438 15.4375 -3.796875 15.125 -2.609375 C 15.75 -3.671875 16 -4.726562 15.875 -5.78125 C 15.8125 -6.65625 15.765625 -7.554688 15.734375 -8.484375 C 15.703125 -9.421875 15.625 -10.359375 15.5 -11.296875 C 15.5 -11.859375 15.484375 -12.398438 15.453125 -12.921875 C 15.421875 -13.453125 15.375 -14 15.3125 -14.5625 Z M 15.3125 -14.5625 "/></g></g></g><g fill="#2b2b2b" fill-opacity="1"><g transform="translate(209.896037, 191.814026)"><g/></g></g><g fill="#2b2b2b" fill-opacity="1"><g transform="translate(220.069193, 191.814026)"><g><path d="M 34.15625 -2.796875 C 33.789062 -2.921875 33.375 -3.570312 32.90625 -4.75 C 32.4375 -5.9375 31.9375 -7.398438 31.40625 -9.140625 C 30.875 -10.890625 30.375 -12.695312 29.90625 -14.5625 C 29.445312 -16.425781 29.03125 -18.101562 28.65625 -19.59375 C 28.28125 -21.09375 28.03125 -22.1875 27.90625 -22.875 L 20.625 -22.78125 C 19.945312 -19.976562 19.359375 -17.191406 18.859375 -14.421875 C 18.359375 -11.648438 17.984375 -8.832031 17.734375 -5.96875 C 17.734375 -5.414062 17.46875 -5.140625 16.9375 -5.140625 C 16.414062 -5.140625 16.179688 -5.414062 16.234375 -5.96875 C 16.484375 -8.769531 16.84375 -11.585938 17.3125 -14.421875 C 17.78125 -17.253906 18.453125 -20.039062 19.328125 -22.78125 L 18.484375 -22.78125 C 18.171875 -21.65625 17.859375 -20.296875 17.546875 -18.703125 C 17.234375 -17.117188 16.9375 -15.566406 16.65625 -14.046875 C 16.375 -12.523438 16.140625 -11.25 15.953125 -10.21875 C 15.773438 -9.195312 15.6875 -8.6875 15.6875 -8.6875 L 15.125 -4.484375 C 14.9375 -2.367188 14.21875 -0.84375 12.96875 0.09375 C 11.726562 1.03125 10.359375 1.40625 8.859375 1.21875 C 7.367188 1.03125 6.109375 0.316406 5.078125 -0.921875 C 4.054688 -2.171875 3.703125 -3.882812 4.015625 -6.0625 C 4.390625 -8.800781 4.820312 -11.539062 5.3125 -14.28125 C 5.8125 -17.019531 6.40625 -19.726562 7.09375 -22.40625 C 6.65625 -22.34375 6.21875 -22.296875 5.78125 -22.265625 C 5.351562 -22.234375 4.953125 -22.21875 4.578125 -22.21875 C 4.703125 -22.53125 4.734375 -22.8125 4.671875 -23.0625 C 3.171875 -23.425781 2.078125 -24.226562 1.390625 -25.46875 C 0.710938 -26.71875 0.53125 -28.101562 0.84375 -29.625 C 1.15625 -31.15625 2.023438 -32.554688 3.453125 -33.828125 C 4.878906 -35.109375 6.992188 -35.96875 9.796875 -36.40625 C 10.484375 -39.519531 11.226562 -42.582031 12.03125 -45.59375 C 12.84375 -48.613281 13.84375 -51.554688 15.03125 -54.421875 C 15.59375 -55.660156 16.210938 -57.007812 16.890625 -58.46875 C 17.578125 -59.9375 18.429688 -61.210938 19.453125 -62.296875 C 20.484375 -63.390625 21.773438 -63.9375 23.328125 -63.9375 C 24.140625 -64 24.945312 -63.78125 25.75 -63.28125 C 26.5625 -62.789062 27.15625 -62.171875 27.53125 -61.421875 C 28.90625 -61.359375 30.039062 -60.875 30.9375 -59.96875 C 31.84375 -59.070312 32.359375 -57.875 32.484375 -56.375 C 32.609375 -54.507812 32.765625 -52.628906 32.953125 -50.734375 C 33.140625 -48.835938 33.328125 -46.984375 33.515625 -45.171875 C 33.578125 -45.109375 33.640625 -45.078125 33.703125 -45.078125 C 33.765625 -46.703125 33.84375 -48.304688 33.9375 -49.890625 C 34.03125 -51.472656 34.164062 -53.046875 34.34375 -54.609375 C 34.34375 -54.859375 34.390625 -54.296875 34.484375 -52.921875 C 34.578125 -51.554688 34.6875 -49.800781 34.8125 -47.65625 C 34.9375 -45.507812 35.0625 -43.359375 35.1875 -41.203125 C 35.3125 -39.054688 35.46875 -37.269531 35.65625 -35.84375 C 37.457031 -35.65625 38.851562 -35.046875 39.84375 -34.015625 C 40.84375 -32.992188 41.46875 -31.8125 41.71875 -30.46875 C 41.96875 -29.132812 41.84375 -27.8125 41.34375 -26.5 C 40.851562 -25.195312 39.953125 -24.140625 38.640625 -23.328125 C 39.265625 -20.597656 39.914062 -17.503906 40.59375 -14.046875 C 41.28125 -10.597656 41.8125 -7.472656 42.1875 -4.671875 C 42.4375 -2.554688 42.265625 -0.953125 41.671875 0.140625 C 41.085938 1.234375 40.3125 1.835938 39.34375 1.953125 C 38.375 2.078125 37.40625 1.734375 36.4375 0.921875 C 35.476562 0.117188 34.71875 -1.117188 34.15625 -2.796875 Z M 20.34375 -34.90625 C 21.03125 -35.03125 21.914062 -35.109375 23 -35.140625 C 24.09375 -35.171875 24.953125 -35.21875 25.578125 -35.28125 C 25.453125 -36.09375 25.3125 -37.242188 25.15625 -38.734375 C 25 -40.234375 24.8125 -41.835938 24.59375 -43.546875 C 24.375 -45.253906 24.109375 -46.828125 23.796875 -48.265625 C 23.054688 -45.648438 22.40625 -43.3125 21.84375 -41.25 C 21.28125 -39.195312 20.78125 -37.082031 20.34375 -34.90625 Z M 20.34375 -34.90625 "/></g></g></g><g fill="#2b2b2b" fill-opacity="1"><g transform="translate(255.444091, 191.814026)"><g><path d="M 1.3125 -53.859375 C 1.125 -54.484375 1.179688 -55.101562 1.484375 -55.71875 C 1.796875 -56.34375 2.109375 -56.875 2.421875 -57.3125 C 3.046875 -58.25 3.828125 -59.023438 4.765625 -59.640625 C 5.015625 -59.890625 5.203125 -60.046875 5.328125 -60.109375 C 6.566406 -60.984375 7.882812 -61.640625 9.28125 -62.078125 C 10.6875 -62.515625 12.101562 -62.546875 13.53125 -62.171875 C 14.78125 -61.859375 15.867188 -61.34375 16.796875 -60.625 C 17.734375 -59.90625 18.421875 -58.925781 18.859375 -57.6875 C 19.046875 -57.1875 19.015625 -56.71875 18.765625 -56.28125 C 18.515625 -55.851562 18.203125 -55.484375 17.828125 -55.171875 C 16.273438 -54.046875 14.625 -53.296875 12.875 -52.921875 C 12.320312 -52.304688 11.578125 -51.859375 10.640625 -51.578125 C 9.703125 -51.296875 8.800781 -51.15625 7.9375 -51.15625 C 7.1875 -51.15625 6.453125 -51.21875 5.734375 -51.34375 C 5.023438 -51.46875 4.328125 -51.65625 3.640625 -51.90625 C 3.203125 -52.019531 2.734375 -52.265625 2.234375 -52.640625 C 1.742188 -53.015625 1.4375 -53.421875 1.3125 -53.859375 Z M 7.5625 -51.625 C 8.925781 -51.625 9.828125 -51.757812 10.265625 -52.03125 C 10.703125 -52.3125 10.890625 -52.453125 10.828125 -52.453125 C 10.265625 -52.328125 9.640625 -52.234375 8.953125 -52.171875 C 8.273438 -52.109375 7.40625 -52.171875 6.34375 -52.359375 C 4.976562 -52.671875 4.0625 -53.296875 3.59375 -54.234375 C 3.125 -55.171875 3.109375 -56.164062 3.546875 -57.21875 C 3.109375 -56.71875 2.703125 -56.128906 2.328125 -55.453125 C 2.140625 -55.015625 2.046875 -54.625 2.046875 -54.28125 C 2.046875 -53.9375 2.234375 -53.609375 2.609375 -53.296875 C 3.234375 -52.796875 3.828125 -52.453125 4.390625 -52.265625 C 5.316406 -51.960938 6.375 -51.75 7.5625 -51.625 Z M 17.265625 -4.953125 C 16.828125 -4.203125 16.175781 -3.671875 15.3125 -3.359375 C 15.375 -3.046875 15.34375 -2.71875 15.21875 -2.375 C 15.09375 -2.03125 14.8125 -1.769531 14.375 -1.59375 C 13.25 -1.03125 12.050781 -0.875 10.78125 -1.125 C 9.507812 -1.375 8.4375 -1.929688 7.5625 -2.796875 L 7.375 -3.078125 C 6.9375 -3.265625 6.46875 -3.546875 5.96875 -3.921875 C 4.976562 -4.859375 4.375 -5.976562 4.15625 -7.28125 C 3.9375 -8.582031 3.734375 -9.890625 3.546875 -11.203125 C 3.109375 -14.679688 2.78125 -18.148438 2.5625 -21.609375 C 2.34375 -25.066406 2.265625 -28.535156 2.328125 -32.015625 C 2.328125 -33.691406 2.328125 -35.382812 2.328125 -37.09375 C 2.328125 -38.8125 2.421875 -40.507812 2.609375 -42.1875 C 2.734375 -43.0625 2.953125 -43.914062 3.265625 -44.75 C 3.578125 -45.59375 4.015625 -46.296875 4.578125 -46.859375 C 4.703125 -47.046875 4.828125 -47.21875 4.953125 -47.375 C 5.078125 -47.53125 5.203125 -47.671875 5.328125 -47.796875 C 6.003906 -48.234375 6.882812 -48.773438 7.96875 -49.421875 C 9.0625 -50.078125 10.132812 -50.453125 11.1875 -50.546875 C 12.25 -50.640625 13.03125 -50.0625 13.53125 -48.8125 C 13.84375 -48.875 14.15625 -48.8125 14.46875 -48.625 C 14.78125 -48.445312 14.96875 -48.140625 15.03125 -47.703125 C 15.03125 -45.953125 15 -44.238281 14.9375 -42.5625 C 14.875 -40.882812 14.84375 -39.175781 14.84375 -37.4375 C 14.84375 -35.75 14.875 -34.050781 14.9375 -32.34375 C 15 -30.632812 15.0625 -28.90625 15.125 -27.15625 C 15.125 -26.851562 15.140625 -26.5 15.171875 -26.09375 C 15.203125 -25.6875 15.25 -25.265625 15.3125 -24.828125 C 15.375 -24.890625 15.453125 -24.640625 15.546875 -24.078125 C 15.640625 -23.523438 15.71875 -22.984375 15.78125 -22.453125 C 15.84375 -21.921875 15.90625 -21.65625 15.96875 -21.65625 C 15.90625 -23.894531 15.859375 -26.382812 15.828125 -29.125 C 15.796875 -31.863281 15.796875 -34.597656 15.828125 -37.328125 C 15.859375 -40.066406 15.9375 -42.53125 16.0625 -44.71875 C 16.0625 -44.832031 16.164062 -44.90625 16.375 -44.9375 C 16.59375 -44.96875 16.703125 -44.953125 16.703125 -44.890625 C 16.515625 -38.234375 16.609375 -31.59375 16.984375 -24.96875 C 17.359375 -18.34375 17.984375 -11.703125 18.859375 -5.046875 C 18.921875 -4.609375 18.703125 -4.375 18.203125 -4.34375 C 17.703125 -4.3125 17.390625 -4.515625 17.265625 -4.953125 Z M 6.90625 -43.03125 C 6.21875 -40.914062 5.828125 -38.691406 5.734375 -36.359375 C 5.640625 -34.023438 5.53125 -31.769531 5.40625 -29.59375 L 5.40625 -28.65625 C 5.40625 -28.59375 5.40625 -28.5625 5.40625 -28.5625 C 5.40625 -28.5625 5.40625 -28.53125 5.40625 -28.46875 C 5.53125 -27.351562 5.65625 -26.234375 5.78125 -25.109375 C 5.90625 -23.984375 6.03125 -22.863281 6.15625 -21.75 L 6.4375 -21.75 C 6.4375 -23.863281 6.421875 -25.960938 6.390625 -28.046875 C 6.359375 -30.128906 6.375 -32.226562 6.4375 -34.34375 C 6.4375 -35.96875 6.515625 -37.601562 6.671875 -39.25 C 6.828125 -40.894531 7.15625 -42.46875 7.65625 -43.96875 L 7.5625 -43.96875 C 7.125 -43.65625 6.90625 -43.34375 6.90625 -43.03125 Z M 6.90625 -43.03125 "/></g></g></g><g fill="#2b2b2b" fill-opacity="1"><g transform="translate(139.594373, 212.933558)"><g><path d="M 0.484375 0 L 0.484375 -6.953125 L 7.828125 -6.953125 L 7.828125 -5.375 L 2.96875 -5.375 L 2.96875 -4.21875 L 7.4375 -4.21875 L 7.4375 -2.859375 L 2.96875 -2.859375 L 2.96875 -1.578125 L 7.921875 -1.578125 L 7.921875 0 Z M 0.484375 0 "/></g></g></g><g fill="#2b2b2b" fill-opacity="1"><g transform="translate(147.577573, 212.933558)"><g><path d="M 0 0 L 3.46875 -6.953125 L 6.4375 -6.953125 L 9.8125 0 L 7.171875 0 L 6.640625 -1.203125 L 3.1875 -1.203125 L 2.65625 0 Z M 3.671875 -2.625 L 6.15625 -2.625 L 4.921875 -5.390625 L 4.90625 -5.390625 Z M 3.671875 -2.625 "/></g></g></g><g fill="#2b2b2b" fill-opacity="1"><g transform="translate(157.268011, 212.933558)"><g><path d="M 4.5625 0.203125 C 4.019531 0.203125 3.46875 0.148438 2.90625 0.046875 C 2.351562 -0.046875 1.835938 -0.179688 1.359375 -0.359375 C 0.890625 -0.546875 0.5 -0.753906 0.1875 -0.984375 L 1.03125 -2.515625 C 1.3125 -2.296875 1.648438 -2.101562 2.046875 -1.9375 C 2.453125 -1.78125 2.882812 -1.648438 3.34375 -1.546875 C 3.800781 -1.453125 4.253906 -1.40625 4.703125 -1.40625 C 5.203125 -1.40625 5.59375 -1.457031 5.875 -1.5625 C 6.164062 -1.675781 6.3125 -1.828125 6.3125 -2.015625 C 6.3125 -2.160156 6.191406 -2.28125 5.953125 -2.375 C 5.722656 -2.46875 5.347656 -2.539062 4.828125 -2.59375 L 3.546875 -2.75 C 2.429688 -2.863281 1.625 -3.082031 1.125 -3.40625 C 0.625 -3.738281 0.375 -4.210938 0.375 -4.828125 C 0.382812 -5.316406 0.5625 -5.738281 0.90625 -6.09375 C 1.257812 -6.445312 1.75 -6.710938 2.375 -6.890625 C 3.007812 -7.066406 3.742188 -7.15625 4.578125 -7.15625 C 5.304688 -7.15625 5.992188 -7.078125 6.640625 -6.921875 C 7.296875 -6.765625 7.84375 -6.550781 8.28125 -6.28125 L 7.578125 -4.8125 C 7.191406 -5.0625 6.734375 -5.257812 6.203125 -5.40625 C 5.671875 -5.550781 5.132812 -5.625 4.59375 -5.625 C 4.101562 -5.613281 3.691406 -5.550781 3.359375 -5.4375 C 3.035156 -5.332031 2.875 -5.1875 2.875 -5 C 2.863281 -4.875 2.957031 -4.769531 3.15625 -4.6875 C 3.363281 -4.601562 3.695312 -4.539062 4.15625 -4.5 L 5.4375 -4.359375 C 6.613281 -4.242188 7.46875 -4.015625 8 -3.671875 C 8.53125 -3.335938 8.796875 -2.851562 8.796875 -2.21875 C 8.804688 -1.738281 8.632812 -1.316406 8.28125 -0.953125 C 7.9375 -0.585938 7.445312 -0.300781 6.8125 -0.09375 C 6.175781 0.101562 5.425781 0.203125 4.5625 0.203125 Z M 4.5625 0.203125 "/></g></g></g><g fill="#2b2b2b" fill-opacity="1"><g transform="translate(166.124232, 212.933558)"><g><path d="M 3.359375 0 L 3.359375 -2.375 L 0 -6.953125 L 2.671875 -6.953125 L 4.640625 -4.03125 L 4.65625 -4.03125 L 6.53125 -6.953125 L 9.25 -6.953125 L 5.921875 -2.375 L 5.921875 0 Z M 3.359375 0 "/></g></g></g><g fill="#2b2b2b" fill-opacity="1"><g transform="translate(175.232653, 212.933558)"><g/></g></g><g fill="#2b2b2b" fill-opacity="1"><g transform="translate(177.366635, 212.933558)"><g><path d="M 0.484375 0 L 0.484375 -6.953125 L 7.828125 -6.953125 L 7.828125 -5.375 L 2.96875 -5.375 L 2.96875 -4.21875 L 7.4375 -4.21875 L 7.4375 -2.859375 L 2.96875 -2.859375 L 2.96875 -1.578125 L 7.921875 -1.578125 L 7.921875 0 Z M 0.484375 0 "/></g></g></g><g fill="#2b2b2b" fill-opacity="1"><g transform="translate(185.349834, 212.933558)"><g><path d="M 0.484375 0 L 0.484375 -6.953125 L 3.5625 -6.953125 L 7.28125 -2.4375 L 7.296875 -2.4375 L 7.296875 -6.953125 L 9.71875 -6.953125 L 9.71875 0 L 6.640625 0 L 2.90625 -4.5625 L 2.90625 0 Z M 0.484375 0 "/></g></g></g><g fill="#2b2b2b" fill-opacity="1"><g transform="translate(195.408875, 212.933558)"><g><path d="M 4.796875 0.171875 C 3.910156 0.171875 3.128906 0.0234375 2.453125 -0.265625 C 1.773438 -0.554688 1.25 -0.960938 0.875 -1.484375 C 0.5 -2.015625 0.3125 -2.628906 0.3125 -3.328125 C 0.3125 -3.898438 0.425781 -4.414062 0.65625 -4.875 C 0.894531 -5.332031 1.226562 -5.726562 1.65625 -6.0625 C 2.09375 -6.40625 2.613281 -6.664062 3.21875 -6.84375 C 3.832031 -7.03125 4.503906 -7.125 5.234375 -7.125 C 5.984375 -7.125 6.660156 -7.023438 7.265625 -6.828125 C 7.878906 -6.640625 8.378906 -6.375 8.765625 -6.03125 C 9.160156 -5.6875 9.410156 -5.285156 9.515625 -4.828125 L 7.109375 -4.421875 C 7.023438 -4.710938 6.804688 -4.945312 6.453125 -5.125 C 6.097656 -5.300781 5.691406 -5.390625 5.234375 -5.390625 C 4.773438 -5.390625 4.363281 -5.304688 4 -5.140625 C 3.644531 -4.984375 3.367188 -4.753906 3.171875 -4.453125 C 2.972656 -4.148438 2.875 -3.796875 2.875 -3.390625 C 2.875 -3.015625 2.984375 -2.679688 3.203125 -2.390625 C 3.429688 -2.109375 3.75 -1.882812 4.15625 -1.71875 C 4.5625 -1.5625 5.03125 -1.484375 5.5625 -1.484375 C 5.976562 -1.484375 6.351562 -1.535156 6.6875 -1.640625 C 7.03125 -1.753906 7.304688 -1.90625 7.515625 -2.09375 C 7.722656 -2.28125 7.84375 -2.492188 7.875 -2.734375 L 4.1875 -2.734375 L 4.1875 -4 L 10.328125 -4 L 10.328125 0 L 8.3125 0 L 8.21875 -1.171875 L 8.203125 -1.171875 C 7.992188 -0.898438 7.710938 -0.664062 7.359375 -0.46875 C 7.015625 -0.269531 6.625 -0.113281 6.1875 0 C 5.75 0.113281 5.285156 0.171875 4.796875 0.171875 Z M 4.796875 0.171875 "/></g></g></g><g fill="#2b2b2b" fill-opacity="1"><g transform="translate(205.943226, 212.933558)"><g><path d="M 0.484375 0 L 0.484375 -6.953125 L 3.046875 -6.953125 L 3.046875 -1.875 L 7.28125 -1.875 L 7.28125 0 Z M 0.484375 0 "/></g></g></g><g fill="#2b2b2b" fill-opacity="1"><g transform="translate(213.257112, 212.933558)"><g><path d="M 0.484375 0 L 0.484375 -6.953125 L 3.03125 -6.953125 L 3.03125 0 Z M 0.484375 0 "/></g></g></g><g fill="#2b2b2b" fill-opacity="1"><g transform="translate(216.642417, 212.933558)"><g><path d="M 4.5625 0.203125 C 4.019531 0.203125 3.46875 0.148438 2.90625 0.046875 C 2.351562 -0.046875 1.835938 -0.179688 1.359375 -0.359375 C 0.890625 -0.546875 0.5 -0.753906 0.1875 -0.984375 L 1.03125 -2.515625 C 1.3125 -2.296875 1.648438 -2.101562 2.046875 -1.9375 C 2.453125 -1.78125 2.882812 -1.648438 3.34375 -1.546875 C 3.800781 -1.453125 4.253906 -1.40625 4.703125 -1.40625 C 5.203125 -1.40625 5.59375 -1.457031 5.875 -1.5625 C 6.164062 -1.675781 6.3125 -1.828125 6.3125 -2.015625 C 6.3125 -2.160156 6.191406 -2.28125 5.953125 -2.375 C 5.722656 -2.46875 5.347656 -2.539062 4.828125 -2.59375 L 3.546875 -2.75 C 2.429688 -2.863281 1.625 -3.082031 1.125 -3.40625 C 0.625 -3.738281 0.375 -4.210938 0.375 -4.828125 C 0.382812 -5.316406 0.5625 -5.738281 0.90625 -6.09375 C 1.257812 -6.445312 1.75 -6.710938 2.375 -6.890625 C 3.007812 -7.066406 3.742188 -7.15625 4.578125 -7.15625 C 5.304688 -7.15625 5.992188 -7.078125 6.640625 -6.921875 C 7.296875 -6.765625 7.84375 -6.550781 8.28125 -6.28125 L 7.578125 -4.8125 C 7.191406 -5.0625 6.734375 -5.257812 6.203125 -5.40625 C 5.671875 -5.550781 5.132812 -5.625 4.59375 -5.625 C 4.101562 -5.613281 3.691406 -5.550781 3.359375 -5.4375 C 3.035156 -5.332031 2.875 -5.1875 2.875 -5 C 2.863281 -4.875 2.957031 -4.769531 3.15625 -4.6875 C 3.363281 -4.601562 3.695312 -4.539062 4.15625 -4.5 L 5.4375 -4.359375 C 6.613281 -4.242188 7.46875 -4.015625 8 -3.671875 C 8.53125 -3.335938 8.796875 -2.851562 8.796875 -2.21875 C 8.804688 -1.738281 8.632812 -1.316406 8.28125 -0.953125 C 7.9375 -0.585938 7.445312 -0.300781 6.8125 -0.09375 C 6.175781 0.101562 5.425781 0.203125 4.5625 0.203125 Z M 4.5625 0.203125 "/></g></g></g><g fill="#2b2b2b" fill-opacity="1"><g transform="translate(225.498636, 212.933558)"><g><path d="M 0.484375 0 L 0.484375 -6.953125 L 3.046875 -6.953125 L 3.046875 -4.5 L 6.84375 -4.5 L 6.84375 -6.953125 L 9.40625 -6.953125 L 9.40625 0 L 6.84375 0 L 6.84375 -2.765625 L 3.046875 -2.765625 L 3.046875 0 Z M 0.484375 0 "/></g></g></g><g clip-path="url(#eb54c586df)"><g clip-path="url(#d486e80d4a)"><path stroke-linecap="butt" transform="matrix(0.75, 0, 0, 0.75, 167.238774, 221.717916)" fill="none" stroke-linejoin="miter" d="M 12.994136 0.00111221 L 41.030596 0.00111221 C 48.202472 0.00111221 54.020181 5.818821 54.020181 12.990696 C 54.020181 20.16778 48.202472 25.985489 41.030596 25.985489 L 12.994136 25.985489 C 5.817052 25.985489 -0.000656357 20.16778 -0.000656357 12.990696 C -0.000656357 5.818821 5.817052 0.00111221 12.994136 0.00111221 Z M 12.994136 0.00111221 " stroke="#2b2b2b" stroke-width="3" stroke-opacity="1" stroke-miterlimit="4"/></g></g><g fill="#2b2b2b" fill-opacity="1"><g transform="translate(178.646961, 232.967915)"><g><path d="M 0.390625 0 L 0.390625 -0.765625 C 0.390625 -1.015625 0.4375 -1.234375 0.53125 -1.421875 C 0.632812 -1.617188 0.765625 -1.785156 0.921875 -1.921875 C 1.078125 -2.054688 1.25 -2.175781 1.4375 -2.28125 C 1.625 -2.382812 1.8125 -2.484375 2 -2.578125 C 2.1875 -2.671875 2.359375 -2.765625 2.515625 -2.859375 C 2.679688 -2.953125 2.8125 -3.054688 2.90625 -3.171875 C 3 -3.296875 3.046875 -3.4375 3.046875 -3.59375 C 3.046875 -3.800781 2.972656 -3.96875 2.828125 -4.09375 C 2.691406 -4.21875 2.5 -4.28125 2.25 -4.28125 C 2 -4.28125 1.785156 -4.207031 1.609375 -4.0625 C 1.429688 -3.914062 1.320312 -3.695312 1.28125 -3.40625 L 0.296875 -3.40625 C 0.304688 -3.71875 0.382812 -4.003906 0.53125 -4.265625 C 0.675781 -4.535156 0.894531 -4.742188 1.1875 -4.890625 C 1.476562 -5.046875 1.84375 -5.125 2.28125 -5.125 C 2.65625 -5.125 2.976562 -5.0625 3.25 -4.9375 C 3.53125 -4.8125 3.742188 -4.632812 3.890625 -4.40625 C 4.046875 -4.175781 4.125 -3.90625 4.125 -3.59375 C 4.125 -3.34375 4.078125 -3.125 3.984375 -2.9375 C 3.890625 -2.757812 3.765625 -2.601562 3.609375 -2.46875 C 3.453125 -2.34375 3.28125 -2.226562 3.09375 -2.125 C 2.914062 -2.03125 2.734375 -1.941406 2.546875 -1.859375 C 2.367188 -1.773438 2.203125 -1.6875 2.046875 -1.59375 C 1.890625 -1.507812 1.765625 -1.410156 1.671875 -1.296875 C 1.578125 -1.191406 1.53125 -1.0625 1.53125 -0.90625 L 1.53125 -0.859375 L 4.109375 -0.859375 L 4.109375 0 Z M 0.390625 0 "/></g></g></g><g fill="#2b2b2b" fill-opacity="1"><g transform="translate(182.991362, 232.967915)"><g><path d="M 2.265625 -5.125 C 2.859375 -5.125 3.328125 -4.898438 3.671875 -4.453125 C 4.023438 -4.003906 4.203125 -3.359375 4.203125 -2.515625 C 4.203125 -1.679688 4.03125 -1.039062 3.6875 -0.59375 C 3.34375 -0.144531 2.867188 0.078125 2.265625 0.078125 C 1.648438 0.078125 1.171875 -0.144531 0.828125 -0.59375 C 0.484375 -1.039062 0.3125 -1.679688 0.3125 -2.515625 C 0.3125 -3.078125 0.390625 -3.550781 0.546875 -3.9375 C 0.703125 -4.332031 0.925781 -4.628906 1.21875 -4.828125 C 1.507812 -5.023438 1.859375 -5.125 2.265625 -5.125 Z M 2.265625 -0.765625 C 2.566406 -0.765625 2.785156 -0.894531 2.921875 -1.15625 C 3.054688 -1.425781 3.125 -1.878906 3.125 -2.515625 C 3.125 -3.160156 3.050781 -3.625 2.90625 -3.90625 C 2.769531 -4.1875 2.550781 -4.328125 2.25 -4.328125 C 1.957031 -4.328125 1.738281 -4.1875 1.59375 -3.90625 C 1.445312 -3.625 1.375 -3.160156 1.375 -2.515625 C 1.375 -1.890625 1.445312 -1.441406 1.59375 -1.171875 C 1.738281 -0.898438 1.960938 -0.765625 2.265625 -0.765625 Z M 2.265625 -0.765625 "/></g></g></g><g fill="#2b2b2b" fill-opacity="1"><g transform="translate(187.40223, 232.967915)"><g><path d="M 0.390625 0 L 0.390625 -0.765625 C 0.390625 -1.015625 0.4375 -1.234375 0.53125 -1.421875 C 0.632812 -1.617188 0.765625 -1.785156 0.921875 -1.921875 C 1.078125 -2.054688 1.25 -2.175781 1.4375 -2.28125 C 1.625 -2.382812 1.8125 -2.484375 2 -2.578125 C 2.1875 -2.671875 2.359375 -2.765625 2.515625 -2.859375 C 2.679688 -2.953125 2.8125 -3.054688 2.90625 -3.171875 C 3 -3.296875 3.046875 -3.4375 3.046875 -3.59375 C 3.046875 -3.800781 2.972656 -3.96875 2.828125 -4.09375 C 2.691406 -4.21875 2.5 -4.28125 2.25 -4.28125 C 2 -4.28125 1.785156 -4.207031 1.609375 -4.0625 C 1.429688 -3.914062 1.320312 -3.695312 1.28125 -3.40625 L 0.296875 -3.40625 C 0.304688 -3.71875 0.382812 -4.003906 0.53125 -4.265625 C 0.675781 -4.535156 0.894531 -4.742188 1.1875 -4.890625 C 1.476562 -5.046875 1.84375 -5.125 2.28125 -5.125 C 2.65625 -5.125 2.976562 -5.0625 3.25 -4.9375 C 3.53125 -4.8125 3.742188 -4.632812 3.890625 -4.40625 C 4.046875 -4.175781 4.125 -3.90625 4.125 -3.59375 C 4.125 -3.34375 4.078125 -3.125 3.984375 -2.9375 C 3.890625 -2.757812 3.765625 -2.601562 3.609375 -2.46875 C 3.453125 -2.34375 3.28125 -2.226562 3.09375 -2.125 C 2.914062 -2.03125 2.734375 -1.941406 2.546875 -1.859375 C 2.367188 -1.773438 2.203125 -1.6875 2.046875 -1.59375 C 1.890625 -1.507812 1.765625 -1.410156 1.671875 -1.296875 C 1.578125 -1.191406 1.53125 -1.0625 1.53125 -0.90625 L 1.53125 -0.859375 L 4.109375 -0.859375 L 4.109375 0 Z M 0.390625 0 "/></g></g></g><g fill="#2b2b2b" fill-opacity="1"><g transform="translate(191.746631, 232.967915)"><g><path d="M 2.609375 -5.0625 L 3.609375 -5.0625 L 3.609375 -1.984375 L 4.390625 -1.984375 L 4.390625 -1.125 L 3.609375 -1.125 L 3.609375 0 L 2.625 0 L 2.625 -1.125 L 0.296875 -1.125 L 0.296875 -1.953125 Z M 1.25 -1.984375 L 2.625 -1.984375 L 2.625 -3.828125 Z M 1.25 -1.984375 "/></g></g></g></svg>